<?xml version="1.0" encoding="UTF-8"?> <svg xmlns="http://www.w3.org/2000/svg" width="1600" height="1600" viewBox="0 0 1600 1600" fill="none"> <path d="M1009.06 391.664C986.364 368.124 974.977 335.933 950.931 313.551C939.052 302.495 924.229 293.619 908.351 289.861C907.32 289.619 888.064 286.627 888.056 288.551C888.064 286.627 868.783 289.448 867.751 289.683C851.839 293.299 836.939 302.043 824.963 312.995C800.719 335.164 789.048 367.252 766.144 390.591C733.812 423.536 694.899 453.755 700.657 505.465C706.869 561.255 756.119 586.868 807.361 572.643C876.133 553.553 886.871 556.832 886.871 556.832C886.871 556.832 897.637 553.648 966.237 573.345C1017.35 588.021 1066.83 562.844 1073.53 507.113C1079.75 455.455 1041.1 424.893 1009.06 391.664" fill="#171717"></path> <path d="M1030.98 201.44C1020.39 247.067 984.472 277.721 950.76 269.896C917.048 262.067 898.305 218.733 908.899 173.093C919.491 127.467 955.408 96.8134 989.12 104.64C1022.83 112.467 1041.57 155.8 1030.98 201.44Z" fill="#171717"></path> <path d="M866.331 183.013C871.113 229.613 846.892 270.273 812.232 273.831C777.571 277.388 745.596 242.493 740.813 195.893C736.032 149.293 760.252 108.627 794.913 105.067C829.573 101.507 861.548 136.413 866.331 183.013" fill="#171717"></path> <path d="M740.733 279.032C758.747 316.525 750.084 358.096 721.385 371.885C692.687 385.673 654.819 366.456 636.805 328.963C618.792 291.469 627.455 249.893 656.153 236.107C684.852 222.32 722.72 241.533 740.733 279.032Z" fill="#171717"></path> <path d="M1033.64 280.325C1015.3 317.657 1023.59 359.305 1052.17 373.345C1080.74 387.387 1118.78 368.505 1137.12 331.173C1155.47 293.84 1147.17 252.187 1118.6 238.147C1090.02 224.107 1051.98 242.987 1033.64 280.325" fill="#171717"></path> <path d="M432.429 422.526C430.601 419.824 431.751 415.824 434.985 413.635L517.201 357.999C520.435 355.81 524.577 356.228 526.407 358.929L865.852 860.323C866.091 860.675 866.276 861.051 866.415 861.441C866.725 861.715 867.005 862.027 867.244 862.38L1206.69 1363.77C1208.52 1366.48 1207.37 1370.48 1204.13 1372.67L1121.92 1428.29C1118.68 1430.49 1114.54 1430.07 1112.71 1427.37L773.268 925.976C773.029 925.623 772.844 925.247 772.704 924.857C772.393 924.583 772.113 924.271 771.875 923.919L432.429 422.526Z" fill="#171717"></path> <path d="M346.919 502.464L453.089 430.617C454.117 429.921 454.391 428.509 453.693 427.48L442.653 411.172C441.957 410.144 440.545 409.872 439.516 410.568L333.347 482.415C332.317 483.112 332.045 484.524 332.743 485.552L343.783 501.86C344.479 502.888 345.891 503.16 346.919 502.464" fill="#171717"></path> <path d="M380.196 534.964L470.903 473.581C476.184 470.008 478.061 463.475 475.076 459.064L472.361 455.055C469.375 450.644 462.611 449.959 457.329 453.533L366.624 514.916C361.341 518.489 359.464 525.023 362.449 529.433L365.164 533.443C368.151 537.853 374.915 538.537 380.196 534.964Z" fill="#171717"></path> <path d="M405.741 572.696L496.447 511.313C501.728 507.74 503.607 501.207 500.621 496.796L497.907 492.787C494.92 488.376 488.156 487.691 482.875 491.265L392.168 552.648C386.887 556.221 385.009 562.755 387.995 567.165L390.709 571.175C393.696 575.585 400.46 576.271 405.741 572.696" fill="#171717"></path> <path d="M431.287 610.428L521.992 549.047C527.273 545.472 529.152 538.939 526.165 534.528L523.451 530.519C520.465 526.108 513.701 525.424 508.419 528.997L417.713 590.38C412.432 593.955 410.553 600.487 413.54 604.897L416.255 608.908C419.24 613.319 426.005 614.003 431.287 610.428Z" fill="#171717"></path> <path d="M456.831 648.161L547.537 586.779C552.819 583.204 554.697 576.672 551.711 572.261L548.996 568.251C546.011 563.84 539.245 563.156 533.964 566.731L443.259 628.112C437.977 631.687 436.099 638.22 439.084 642.631L441.799 646.64C444.785 651.051 451.549 651.735 456.831 648.161" fill="#171717"></path> <path d="M482.376 685.893L573.081 624.511C578.364 620.937 580.241 614.404 577.256 609.993L574.541 605.983C571.555 601.572 564.791 600.888 559.509 604.463L468.803 665.844C463.521 669.419 461.644 675.952 464.629 680.363L467.344 684.372C470.331 688.783 477.095 689.467 482.376 685.893" fill="#171717"></path> <path d="M507.921 723.625L598.627 662.243C603.908 658.669 605.787 652.136 602.8 647.725L600.087 643.716C597.1 639.305 590.336 638.62 585.053 642.195L494.348 703.577C489.067 707.151 487.188 713.684 490.175 718.095L492.889 722.104C495.875 726.515 502.64 727.2 507.921 723.625" fill="#171717"></path> <path d="M533.467 761.357L624.172 699.976C629.453 696.401 631.332 689.868 628.345 685.457L625.631 681.448C622.645 677.037 615.88 676.353 610.599 679.927L519.893 741.309C514.612 744.883 512.733 751.416 515.72 755.827L518.435 759.836C521.42 764.247 528.184 764.932 533.467 761.357" fill="#171717"></path> <path d="M559.011 799.089L649.717 737.708C654.999 734.133 656.876 727.6 653.891 723.189L651.176 719.18C648.189 714.769 641.425 714.085 636.144 717.659L545.439 779.041C540.156 782.616 538.279 789.148 541.264 793.559L543.979 797.569C546.965 801.98 553.729 802.664 559.011 799.089" fill="#171717"></path> <path d="M584.556 836.823L675.261 775.44C680.544 771.865 682.421 765.333 679.436 760.923L676.721 756.912C673.735 752.501 666.971 751.817 661.689 755.392L570.983 816.773C565.701 820.348 563.824 826.881 566.809 831.292L569.524 835.301C572.511 839.712 579.275 840.396 584.556 836.823Z" fill="#171717"></path> <path d="M610.101 874.555L700.807 813.172C706.088 809.599 707.967 803.065 704.98 798.655L702.265 794.645C699.28 790.235 692.516 789.549 687.233 793.124L596.528 854.505C591.247 858.08 589.368 864.613 592.355 869.024L595.069 873.033C598.055 877.444 604.82 878.128 610.101 874.555Z" fill="#171717"></path> <path d="M635.645 912.287L726.352 850.904C731.633 847.331 733.512 840.797 730.525 836.387L727.811 832.377C724.825 827.967 718.06 827.281 712.779 830.856L622.073 892.239C616.792 895.812 614.913 902.345 617.9 906.756L620.613 910.765C623.6 915.176 630.364 915.861 635.645 912.287" fill="#171717"></path> <path d="M661.191 950.019L751.897 888.637C757.179 885.063 759.056 878.529 756.071 874.119L753.356 870.109C750.369 865.699 743.605 865.015 738.324 868.588L647.619 929.971C642.336 933.545 640.459 940.077 643.444 944.488L646.159 948.499C649.145 952.909 655.909 953.593 661.191 950.019Z" fill="#171717"></path> <path d="M679.004 992.984L785.173 921.137C786.203 920.44 786.475 919.029 785.777 918L774.737 901.692C774.041 900.664 772.629 900.392 771.601 901.088L665.431 972.935C664.403 973.632 664.131 975.043 664.827 976.072L675.867 992.38C676.564 993.408 677.975 993.68 679.004 992.984" fill="#171717"></path> <path d="M1019.24 1497.79L1127.49 1424.53C1127.95 1424.21 1128.07 1423.6 1127.76 1423.13L1122.88 1415.93C1122.57 1415.47 1121.95 1415.35 1121.49 1415.67L1013.23 1488.92C1012.78 1489.23 1012.66 1489.85 1012.97 1490.31L1017.85 1497.52C1018.16 1497.97 1018.78 1498.09 1019.24 1497.79" fill="#171717"></path> <path d="M1011.14 1476.17L1110.43 1408.99C1113.35 1407.01 1114.39 1403.4 1112.74 1400.96C1111.09 1398.52 1107.35 1398.15 1104.43 1400.12L1005.14 1467.31C1002.22 1469.28 1001.18 1472.89 1002.83 1475.33C1004.48 1477.77 1008.22 1478.15 1011.14 1476.17" fill="#171717"></path> <path d="M998.564 1457.6L1097.86 1390.4C1100.78 1388.43 1101.82 1384.81 1100.17 1382.37C1098.51 1379.95 1094.77 1379.56 1091.86 1381.53L992.561 1448.73C989.641 1450.71 988.604 1454.32 990.255 1456.76C991.905 1459.2 995.644 1459.57 998.564 1457.6" fill="#171717"></path> <path d="M985.987 1439.03L1085.28 1371.83C1088.2 1369.85 1089.24 1366.24 1087.59 1363.8C1085.94 1361.36 1082.2 1360.99 1079.28 1362.96L979.984 1430.16C977.064 1432.13 976.027 1435.75 977.677 1438.19C979.328 1440.61 983.067 1441 985.987 1439.03Z" fill="#171717"></path> <path d="M973.409 1420.44L1072.7 1353.25C1075.62 1351.28 1076.66 1347.67 1075.01 1345.23C1073.36 1342.79 1069.62 1342.41 1066.7 1344.39L967.407 1411.57C964.488 1413.56 963.449 1417.16 965.1 1419.6C966.751 1422.04 970.491 1422.43 973.409 1420.44" fill="#171717"></path> <path d="M960.833 1401.87L1060.13 1334.67C1063.05 1332.7 1064.09 1329.09 1062.43 1326.65C1060.78 1324.21 1057.04 1323.83 1054.13 1325.81L954.831 1393C951.911 1394.97 950.872 1398.59 952.523 1401.03C954.173 1403.47 957.913 1403.84 960.833 1401.87" fill="#171717"></path> <path d="M948.256 1383.29L1047.55 1316.1C1050.47 1314.12 1051.51 1310.51 1049.86 1308.07C1048.21 1305.63 1044.47 1305.25 1041.55 1307.23L942.253 1374.43C939.333 1376.4 938.296 1380.01 939.947 1382.45C941.597 1384.89 945.336 1385.27 948.256 1383.29" fill="#171717"></path> <path d="M935.679 1364.71L1034.97 1297.52C1037.89 1295.54 1038.93 1291.93 1037.28 1289.49C1035.63 1287.05 1031.89 1286.68 1028.97 1288.65L929.676 1355.84C926.757 1357.83 925.719 1361.44 927.369 1363.87C929.02 1366.31 932.759 1366.69 935.679 1364.71" fill="#171717"></path> <path d="M923.101 1346.13L1022.4 1278.94C1025.32 1276.97 1026.35 1273.35 1024.7 1270.91C1023.05 1268.48 1019.31 1268.1 1016.39 1270.07L917.1 1337.27C914.18 1339.24 913.141 1342.85 914.792 1345.29C916.443 1347.73 920.183 1348.11 923.101 1346.13Z" fill="#171717"></path> <path d="M910.525 1327.56L1009.82 1260.36C1012.74 1258.39 1013.78 1254.78 1012.13 1252.34C1010.48 1249.9 1006.74 1249.52 1003.82 1251.5L904.523 1318.69C901.603 1320.67 900.564 1324.28 902.215 1326.72C903.865 1329.15 907.605 1329.53 910.525 1327.56" fill="#171717"></path> <path d="M897.948 1308.98L997.243 1241.79C1000.16 1239.81 1001.2 1236.2 999.549 1233.76C997.899 1231.32 994.16 1230.94 991.24 1232.92L891.945 1300.11C889.025 1302.09 887.988 1305.7 889.639 1308.14C891.289 1310.58 895.028 1310.96 897.948 1308.98Z" fill="#171717"></path> <path d="M885.371 1290.4L984.665 1223.21C987.585 1221.23 988.623 1217.62 986.972 1215.18C985.321 1212.75 981.583 1212.37 978.663 1214.34L879.368 1281.54C876.449 1283.51 875.411 1287.12 877.061 1289.56C878.712 1292 882.452 1292.38 885.371 1290.4" fill="#171717"></path> <path d="M872.795 1271.83L972.088 1204.63C975.008 1202.66 976.047 1199.04 974.396 1196.61C972.745 1194.17 969.005 1193.79 966.085 1195.77L866.792 1262.96C863.872 1264.93 862.833 1268.55 864.484 1270.99C866.135 1273.42 869.875 1273.8 872.795 1271.83" fill="#171717"></path> <path d="M860.217 1253.25L959.512 1186.05C962.431 1184.08 963.469 1180.47 961.819 1178.03C960.168 1175.59 956.428 1175.21 953.509 1177.19L854.215 1244.38C851.295 1246.36 850.256 1249.97 851.907 1252.41C853.557 1254.85 857.297 1255.22 860.217 1253.25" fill="#171717"></path> <path d="M847.64 1234.67L946.935 1167.48C949.855 1165.5 950.892 1161.89 949.241 1159.45C947.591 1157.01 943.852 1156.63 940.932 1158.61L841.637 1225.8C838.717 1227.78 837.68 1231.39 839.331 1233.83C840.981 1236.27 844.72 1236.65 847.64 1234.67" fill="#171717"></path> <path d="M835.063 1216.09L934.357 1148.9C937.277 1146.92 938.316 1143.31 936.664 1140.87C935.013 1138.43 931.275 1138.06 928.355 1140.03L829.06 1207.23C826.141 1209.2 825.103 1212.81 826.753 1215.25C828.404 1217.69 832.143 1218.07 835.063 1216.09" fill="#171717"></path> <path d="M822.487 1197.52L921.78 1130.32C924.7 1128.35 925.739 1124.73 924.088 1122.3C922.437 1119.86 918.697 1119.48 915.777 1121.45L816.484 1188.65C813.564 1190.63 812.525 1194.24 814.176 1196.67C815.827 1199.11 819.567 1199.49 822.487 1197.52Z" fill="#171717"></path> <path d="M809.909 1178.94L909.204 1111.74C912.123 1109.77 913.161 1106.16 911.511 1103.72C909.86 1101.28 906.12 1100.9 903.201 1102.88L803.907 1170.07C800.987 1172.05 799.948 1175.66 801.599 1178.1C803.249 1180.54 806.989 1180.91 809.909 1178.94Z" fill="#171717"></path> <path d="M797.332 1160.36L896.627 1093.17C899.547 1091.19 900.584 1087.58 898.933 1085.14C897.283 1082.7 893.544 1082.33 890.624 1084.3L791.329 1151.49C788.409 1153.47 787.372 1157.08 789.023 1159.52C790.673 1161.96 794.412 1162.34 797.332 1160.36Z" fill="#171717"></path> <path d="M784.755 1141.78L884.049 1074.59C886.969 1072.61 888.008 1069 886.357 1066.56C884.705 1064.13 880.967 1063.75 878.047 1065.72L778.752 1132.92C775.833 1134.89 774.795 1138.51 776.445 1140.94C778.096 1143.38 781.836 1143.76 784.755 1141.78Z" fill="#171717"></path> <path d="M772.179 1123.21L871.472 1056.01C874.392 1054.04 875.431 1050.43 873.78 1047.99C872.129 1045.55 868.389 1045.17 865.469 1047.15L766.176 1114.34C763.256 1116.32 762.217 1119.93 763.868 1122.37C765.519 1124.8 769.259 1125.18 772.179 1123.21Z" fill="#171717"></path> <path d="M759.601 1104.63L858.896 1037.43C861.815 1035.46 862.853 1031.85 861.203 1029.41C859.552 1026.97 855.812 1026.59 852.893 1028.57L753.599 1095.76C750.679 1097.74 749.64 1101.35 751.291 1103.79C752.941 1106.23 756.681 1106.61 759.601 1104.63" fill="#171717"></path> <path d="M747.024 1086.05L846.319 1018.86C849.239 1016.88 850.276 1013.27 848.625 1010.83C846.975 1008.39 843.236 1008.01 840.316 1009.99L741.021 1077.19C738.101 1079.16 737.064 1082.77 738.715 1085.21C740.365 1087.65 744.104 1088.03 747.024 1086.05" fill="#171717"></path> <path d="M734.447 1067.47L833.741 1000.28C836.661 998.304 837.7 994.693 836.049 992.255C834.399 989.816 830.659 989.437 827.739 991.413L728.444 1058.61C725.525 1060.58 724.487 1064.19 726.137 1066.63C727.788 1069.07 731.528 1069.45 734.447 1067.47" fill="#171717"></path> <path d="M721.871 1048.9L821.164 981.703C824.084 979.727 825.123 976.116 823.472 973.677C821.821 971.239 818.081 970.86 815.161 972.836L715.868 1040.03C712.948 1042.01 711.909 1045.62 713.56 1048.06C715.211 1050.49 718.951 1050.87 721.871 1048.9Z" fill="#171717"></path> <path d="M709.293 1030.32L808.588 963.125C811.507 961.149 812.545 957.539 810.895 955.1C809.244 952.661 805.504 952.283 802.585 954.259L703.291 1021.45C700.371 1023.43 699.332 1027.04 700.983 1029.48C702.635 1031.92 706.373 1032.3 709.293 1030.32Z" fill="#171717"></path> <path d="M692.235 1014.77L800.492 941.516C800.947 941.208 801.067 940.583 800.759 940.128L795.876 932.916C795.568 932.461 794.944 932.341 794.489 932.649L686.232 1005.91C685.777 1006.22 685.657 1006.84 685.965 1007.3L690.848 1014.51C691.156 1014.96 691.78 1015.08 692.235 1014.77" fill="#171717"></path> <path d="M400.379 1098.63C377.076 1098.63 353.433 1106.78 333.809 1121.58C311.844 1138.14 296.871 1161.21 291.647 1186.53C286.452 1211.71 291.533 1236.11 305.952 1255.24C321.733 1276.17 347.1 1288.17 375.548 1288.17C398.851 1288.17 422.492 1280.02 442.117 1265.23C487.339 1231.13 499.836 1171.17 469.975 1131.57C454.193 1110.64 428.827 1098.63 400.379 1098.63ZM372.088 1313.6C335.644 1313.59 303.089 1298.14 282.771 1271.19C244.524 1220.46 260.183 1143.92 317.679 1100.57C342.447 1081.9 372.333 1071.61 401.832 1071.61C422.077 1071.61 441.591 1076.45 458.305 1085.61C470.996 1087.91 481.135 1088.98 490.179 1088.98C496.052 1088.98 501.477 1088.5 506.305 1087.56C549.739 1079.07 590.907 1047.68 620.967 1024.76C671.684 986.092 721.291 940.037 767.755 896.183L773.813 890.464L764.587 982.284L763.411 983.101C745.795 995.348 657.515 1056.54 649.591 1058.55C643.836 1060.31 591.413 1100.55 559.677 1125.54C557.988 1127.02 523.091 1157.79 512.024 1171.86C514.277 1213.86 493.047 1256.95 456.412 1284.57C431.588 1303.29 401.644 1313.6 372.097 1313.6C372.093 1313.6 372.092 1313.6 372.088 1313.6" fill="white"></path> <path d="M443.988 1267.71C397.324 1302.89 334.412 1298.15 303.471 1257.11C272.528 1216.07 285.275 1154.28 331.939 1119.09C378.603 1083.91 441.515 1088.66 472.456 1129.69C503.399 1170.73 490.652 1232.52 443.988 1267.71ZM557.688 1123.15C557.688 1123.15 641.051 1057.5 648.829 1055.53C656.607 1053.57 761.637 980.549 761.637 980.549L769.888 898.443C723.653 942.081 673.485 988.627 622.851 1027.24C588.933 1053.1 549.608 1082.27 506.9 1090.61C491.751 1093.57 474.168 1091.67 457.249 1088.58C417.305 1066.43 362.693 1070.52 319.549 1103.05C263.332 1145.44 247.977 1219.88 285.253 1269.32C322.531 1318.76 398.323 1324.48 454.541 1282.09C492.211 1253.69 511.419 1210.91 508.853 1170.89C519.589 1156.58 557.688 1123.15 557.688 1123.15" fill="#171717"></path> <path d="M568.599 1274.27C533.381 1274.27 499.559 1295.36 480.331 1329.31C466.872 1353.07 462.353 1379.99 467.604 1405.12C472.824 1430.09 487.091 1450.31 507.776 1462.03C519.88 1468.88 533.225 1472.35 547.444 1472.35C582.66 1472.35 616.48 1451.27 635.709 1417.32C663.413 1368.4 651.101 1308.86 608.264 1284.6C596.16 1277.74 582.815 1274.27 568.599 1274.27V1274.27ZM545.376 1497.96C526.92 1497.96 509.585 1493.44 493.853 1484.53C467.008 1469.32 448.508 1443.17 441.764 1410.91C435.051 1378.77 440.8 1344.4 457.955 1314.11C482.491 1270.79 525.821 1243.88 571.035 1243.88C572.64 1243.88 574.257 1243.92 575.86 1243.99C591.819 1226.94 639.928 1175.09 656.913 1151.82C709.325 1080 762.101 1001.69 761.563 990.983C760.771 975.204 769.057 898.819 769.409 895.575L769.529 894.48L973.445 692.293L1140.05 537.924C1145.15 533.044 1266.05 417.413 1285.14 401.827L1286.28 400.895C1297.29 391.851 1308.59 383.483 1316.61 383.483C1318.97 383.483 1320.95 384.191 1322.49 385.588C1337.44 399.099 1307.97 440.061 1259.14 497.411C1254.2 503.209 1250.3 507.791 1248.59 510.068C1234.08 529.376 1109.12 681.939 1089.15 705.156C1067.47 730.357 938.908 873.427 912.907 900.047C859.363 954.871 813.536 1016.9 775.769 1070.35C769.128 1079.75 762.267 1089.25 755.632 1098.43C731.347 1132.05 706.235 1166.8 686.656 1204.04C663.707 1247.68 667.495 1275.31 673.231 1317.14C674.26 1324.64 675.325 1332.41 676.317 1340.84L676.252 1340.87C679.961 1370.05 673.651 1400.88 658.469 1427.68C633.916 1471.03 590.585 1497.96 545.384 1497.96C545.381 1497.96 545.379 1497.96 545.376 1497.96" fill="white"></path> <path d="M506.243 1464.72C461.843 1439.57 449.031 1378.27 477.625 1327.78C506.221 1277.29 565.396 1256.75 609.796 1281.9C654.196 1307.04 667.008 1368.36 638.413 1418.84C609.817 1469.33 550.644 1489.88 506.243 1464.72ZM655.764 1426.15C671.317 1398.69 676.701 1368.61 673.137 1341.01C673.167 1341.08 673.201 1341.13 673.231 1341.2C666.651 1285.29 656.349 1255 683.905 1202.59C708.953 1154.96 742.273 1112.37 773.231 1068.56C815.389 1008.89 859.553 950.225 910.684 897.875C937.136 870.793 1066.47 726.752 1086.79 703.129C1107.11 679.508 1231.34 527.847 1246.1 508.2C1256.56 494.283 1339.39 405.049 1320.41 387.895C1313.68 381.816 1293.95 398.645 1287.11 404.235C1267.89 419.923 1142.16 540.205 1142.16 540.205L975.635 694.5L772.5 895.911C772.5 895.911 763.877 975.113 764.668 990.827C765.457 1006.54 680.815 1124.34 659.424 1153.65C642.007 1177.52 592.487 1230.79 577.143 1247.17C532.887 1244.61 486.492 1270.04 460.66 1315.65C425.961 1376.91 441.508 1451.31 495.385 1481.83C549.261 1512.33 621.067 1487.41 655.764 1426.15" fill="#171717"></path> <path d="M768.111 915.98C767.225 915.072 767.735 913.128 769.244 911.659C770.752 910.191 776.449 904.644 781.904 899.332C781.904 899.332 996.913 689.951 1011.53 675.853C1028.65 659.387 1299.69 395.851 1299.69 395.851C1305.15 390.543 1310.37 386.907 1311.3 387.769C1312.23 388.631 1312.98 389.348 1312.97 389.361C1312.95 389.375 1308.48 393.728 1303.02 399.036C1303.02 399.036 1031.85 662.697 1014.74 679.169C1000.13 693.253 785.125 902.628 785.125 902.628C779.671 907.939 773.973 913.488 772.465 914.957C770.956 916.427 768.996 916.887 768.111 915.98Z" fill="white"></path> <path d="M869.391 830.531C859.5 841.469 860.348 858.353 871.287 868.245C882.224 878.136 899.109 877.287 909 866.349C918.891 855.412 918.043 838.527 907.104 828.636C896.167 818.745 879.281 819.593 869.391 830.531" fill="white"></path> </svg> 